<svg xmlns="http://www.w3.org/2000/svg"
     xmlns:xlink="http://www.w3.org/1999/xlink"
     width="34"
     height="28"
     viewBox="0 0 34 28">
<defs>
<style>.a,.c{fill="current" stroke="current"}.a{stroke:#707070;}.b{clip-path:url(#a);}</style>
<clipPath id="a">
<rect class="a"
      width="34"
      height="28"
      transform="translate(54 222)" />
</clipPath>
</defs>
<g class="b"
   transform="translate(-54 -222)">
<path class="c"
      d="M2.429,4.857v18.1H7.286v4.526h4.857v4.526H36.429v-18.1H31.571V9.383H26.714V4.857ZM4.857,7.12H24.286V20.7H21.411a6.962,6.962,0,0,0-3.349-3.659,4.377,4.377,0,0,0,1.366-3.129,4.721,4.721,0,0,0-4.857-4.526,4.721,4.721,0,0,0-4.857,4.526,4.377,4.377,0,0,0,1.366,3.129A6.962,6.962,0,0,0,7.732,20.7H4.857Zm9.714,4.526a2.269,2.269,0,1,1,0,4.526,2.269,2.269,0,1,1,0-4.526Zm12.143,0h2.429V25.223H9.714V22.96h17Zm4.857,4.526H34V29.749H14.571V27.486h17Zm-17,2.263A4.9,4.9,0,0,1,18.765,20.7H10.378A4.9,4.9,0,0,1,14.571,18.434Z"
      transform="translate(51.571 217.542)" />
</g>
</svg>