<svg xmlns="http://www.w3.org/2000/svg"
     xmlns:xlink="http://www.w3.org/1999/xlink"
     width="33"
     height="30"
     viewBox="0 0 33 30">
<defs>
<style>.a,.c{fill="current" stroke="current"}.a{stroke:#707070;}.b{clip-path:url(#a);}</style>
<clipPath id="a">
<rect class="a"
      width="33"
      height="30"
      transform="translate(56.5 298.6)" />
</clipPath>
</defs>
<g class="b"
   transform="translate(-56.5 -298.6)">
<path class="c"
      d="M19.741,4.744a.392.392,0,0,0-.294.125L16.625,8.02l-4.07-1.272a.395.395,0,0,0-.5.29l-.918,4.1-4.1.918a.4.4,0,0,0-.291.5L8,16.625,4.868,19.448a.4.4,0,0,0,0,.587L8,22.858,6.747,26.929a.395.395,0,0,0,.291.5l4.1.918.918,4.1a.4.4,0,0,0,.188.255.391.391,0,0,0,.315.035l4.069-1.272,2.823,3.151a.394.394,0,0,0,.588,0l2.822-3.15,4.07,1.271a.388.388,0,0,0,.315-.035.393.393,0,0,0,.188-.255l.918-4.095,4.1-.918a.395.395,0,0,0,.291-.5l-1.254-4.072,3.133-2.823a.4.4,0,0,0,0-.587l-3.134-2.823,1.254-4.071a.395.395,0,0,0-.291-.5l-4.095-.918-.918-4.1a.394.394,0,0,0-.5-.29L22.858,8.02,20.035,4.869A.392.392,0,0,0,19.741,4.744Zm0,.98,2.7,3.01a.394.394,0,0,0,.412.113l3.9-1.219.879,3.921a.393.393,0,0,0,.3.3l3.923.879-1.2,3.9a.394.394,0,0,0,.113.409l2.994,2.7-2.994,2.7a.4.4,0,0,0-.113.409l1.2,3.9-3.923.88a.393.393,0,0,0-.3.3l-.879,3.921-3.9-1.219a.393.393,0,0,0-.413.113l-2.7,3.011-2.7-3.011a.394.394,0,0,0-.295-.131.373.373,0,0,0-.117.018l-3.9,1.219-.879-3.921a.4.4,0,0,0-.3-.3l-3.923-.879,1.2-3.9a.394.394,0,0,0-.113-.409l-2.994-2.7,2.994-2.7a.394.394,0,0,0,.113-.409l-1.2-3.9,3.924-.88a.392.392,0,0,0,.3-.3l.879-3.921,3.9,1.219a.394.394,0,0,0,.413-.113Zm0,1.872a.2.2,0,0,0-.147.066l-1.346,1.5a.2.2,0,0,0,.294.264l1.2-1.339,2.286,2.552a.2.2,0,0,0,.206.057l3.356-1.05.455,2.025a.2.2,0,0,0,.192.155.219.219,0,0,0,.044-.005.2.2,0,0,0,.15-.236l-.5-2.235a.2.2,0,0,0-.252-.145l-3.439,1.076L19.888,7.662A.2.2,0,0,0,19.742,7.6ZM13.726,9.2a.2.2,0,0,0-.171.153l-.77,3.432-1.575.354a.2.2,0,0,0,.043.39.275.275,0,0,0,.044,0l1.7-.382a.2.2,0,0,0,.149-.15l.751-3.344,3.356,1.05a.2.2,0,0,0,.207-.057l.305-.341a.2.2,0,0,0-.295-.264l-.221.247-3.44-1.076A.2.2,0,0,0,13.726,9.2Zm12.726,3.047a.2.2,0,0,0-.227.237l.114.507a.2.2,0,0,0,.15.15l3.352.755-1.03,3.354a.2.2,0,0,0,.056.2l.4.364a.2.2,0,1,0,.264-.294l-.31-.279,1.056-3.437a.2.2,0,0,0-.018-.157.194.194,0,0,0-.127-.093L26.7,12.785l-.086-.386A.2.2,0,0,0,26.452,12.249ZM10.494,13.317a.192.192,0,0,0-.078,0l-1.07.241a.2.2,0,0,0-.146.251l1.06,3.436L7.654,19.594a.2.2,0,0,0,0,.293l2.606,2.348-.122.395a.2.2,0,0,0,.131.247.2.2,0,0,0,.058.008.2.2,0,0,0,.189-.139l.159-.515a.2.2,0,0,0-.057-.205L8.081,19.741l2.538-2.285a.2.2,0,0,0,.056-.205L9.641,13.9,10.5,13.7a.2.2,0,0,0-.008-.387Zm11.811.9a.344.344,0,0,0-.342.207L16.835,24.674a.4.4,0,0,0-.041.18.391.391,0,0,0,.13.291.43.43,0,0,0,.308.124.376.376,0,0,0,.383-.221l5.114-10.184a.493.493,0,0,0,.041-.194.421.421,0,0,0-.143-.325A.466.466,0,0,0,22.3,14.213Zm-5.525.395a1.936,1.936,0,0,0-1.295.408A1.589,1.589,0,0,0,15,16.3v2.148a1.587,1.587,0,0,0,.482,1.282,1.936,1.936,0,0,0,1.295.408,1.943,1.943,0,0,0,1.288-.408,1.576,1.576,0,0,0,.489-1.282V16.3a1.576,1.576,0,0,0-.489-1.282A1.941,1.941,0,0,0,16.78,14.608Zm0,.73q.987,0,.987.944v2.179q0,.944-.987.944t-.986-.944V16.282Q15.794,15.338,16.78,15.339Zm13.41,2.856a.2.2,0,0,0-.136.065.2.2,0,0,0,.015.278l.413.372a.2.2,0,0,0,.264-.293l-.413-.372A.2.2,0,0,0,30.19,18.195Zm1.191,1.074a.2.2,0,0,0-.122.344l.142.128-2.533,2.285a.2.2,0,0,0-.056.205l1.03,3.354-.466.1a.2.2,0,0,0,.043.391.179.179,0,0,0,.043-.005l.673-.152a.2.2,0,0,0,.128-.093.2.2,0,0,0,.018-.157l-1.056-3.437,2.6-2.348a.2.2,0,0,0,0-.293l-.3-.275A.2.2,0,0,0,31.381,19.269Zm-8.679.077a1.938,1.938,0,0,0-1.295.408,1.587,1.587,0,0,0-.482,1.282v2.148a1.587,1.587,0,0,0,.482,1.282,2.248,2.248,0,0,0,2.583,0,1.577,1.577,0,0,0,.489-1.282V21.036a1.577,1.577,0,0,0-.489-1.282A1.943,1.943,0,0,0,22.7,19.346Zm0,.734q.987,0,.987.942V23.2q0,.943-.987.942t-.988-.942V21.023Q21.714,20.081,22.7,20.08ZM10.061,23.288a.2.2,0,0,0-.168.139l-.123.4a.2.2,0,0,0,.131.247.2.2,0,0,0,.247-.13l.123-.4a.2.2,0,0,0-.21-.255Zm-.369,1.2a.2.2,0,0,0-.169.139L9.2,25.672a.2.2,0,0,0,.145.251l3.439.774.77,3.432a.2.2,0,0,0,.251.145l3.44-1.076,2.347,2.622a.2.2,0,0,0,.147.066.2.2,0,0,0,.147-.066l.608-.679a.2.2,0,0,0-.294-.264l-.461.515-2.286-2.551a.2.2,0,0,0-.206-.057l-3.357,1.05-.75-3.344a.2.2,0,0,0-.15-.15l-3.352-.755.259-.842a.2.2,0,0,0-.13-.247A.191.191,0,0,0,9.692,24.487Zm18.966,1.38a.192.192,0,0,0-.078,0l-2.091.471a.2.2,0,0,0-.15.149l-.751,3.344-3.356-1.05a.2.2,0,0,0-.206.057l-.719.8a.2.2,0,1,0,.294.264l.634-.708,3.44,1.076a.21.21,0,0,0,.059.008.194.194,0,0,0,.1-.026.2.2,0,0,0,.094-.128L26.7,26.7l1.969-.443a.2.2,0,0,0-.008-.386Z"
      transform="translate(53.259 293.856)" />
</g>
</svg>