<svg xmlns="http://www.w3.org/2000/svg"
     xmlns:xlink="http://www.w3.org/1999/xlink"
     width="24"
     height="24"
     viewBox="0 0 24 24">
<defs>
<style>.a,.c{fill="current" stroke="current"}.b{clip-path:url(#a);}.c{stroke-width:0.308px;}</style>
<clipPath id="a">
<rect class="a"
      width="24"
      height="24"
      transform="translate(59.5 533.266)" />
</clipPath>
</defs>
<g class="b"
   transform="translate(-59.5 -533.266)">
<path class="c"
      d="M12.737,4.308a3.148,3.148,0,0,0-1.475.367L7.774,6.529a3.091,3.091,0,0,0-1.246,1.21h0c-.459.813-3.109,5.966-3.109,5.966a.308.308,0,0,0,.11.4l3.43,2.154a.308.308,0,0,0,.412-.079l1.245-1.7V26.154a.308.308,0,0,0,.308.308H21.846a.308.308,0,0,0,.308-.308V14.48l1.245,1.7a.308.308,0,0,0,.412.079l3.43-2.154a.308.308,0,0,0,.11-.4S24.7,8.552,24.242,7.74h0A3.091,3.091,0,0,0,23,6.529h0L19.507,4.674a3.147,3.147,0,0,0-1.475-.367Zm0,.615h5.295a2.528,2.528,0,0,1,.35.026,3.007,3.007,0,0,1-3,1.82,3.008,3.008,0,0,1-3-1.82A2.527,2.527,0,0,1,12.737,4.923ZM12.119,5a3.244,3.244,0,0,0,3.266,2.076A3.243,3.243,0,0,0,18.65,5a2.526,2.526,0,0,1,.568.218l.294.156a3.072,3.072,0,0,1-.4.845.154.154,0,1,0,.252.177,3.56,3.56,0,0,0,.445-.865l2.9,1.541h0a2.471,2.471,0,0,1,1,.97c.312.553,1.675,3.19,2.4,4.6L23,14.591l-.9-1.234a.308.308,0,0,0-.556.181V24.616h-.769a.154.154,0,1,0,0,.308h.769v.923H9.231v-.923h8.462a.154.154,0,1,0,0-.308H9.231V13.539a.308.308,0,0,0-.556-.181l-.9,1.234L4.663,12.639c.726-1.407,2.089-4.044,2.4-4.6a2.471,2.471,0,0,1,1-.97h0l2.9-1.541a4.565,4.565,0,0,0,4.423,2.776,5.269,5.269,0,0,0,2.377-.555.154.154,0,1,0-.139-.274A4.959,4.959,0,0,1,15.385,8,4.225,4.225,0,0,1,11.26,5.373l.291-.155A2.529,2.529,0,0,1,12.119,5Zm6.488,1.838a.154.154,0,0,0-.093.04q-.142.125-.3.237a.154.154,0,1,0,.18.249c.112-.081.218-.167.319-.256a.154.154,0,0,0-.11-.27ZM4.521,12.914,7.59,14.84l-.546.747L4.1,13.736Zm21.727,0,.425.823-2.947,1.851-.546-.747Zm-7.017,11.7a.154.154,0,1,0,0,.308h.615a.154.154,0,1,0,0-.308Z"
      transform="translate(56.115 529.882)" />
</g>
</svg>