<svg xmlns="http://www.w3.org/2000/svg"
     xmlns:xlink="http://www.w3.org/1999/xlink"
     width="34"
     height="30"
     viewBox="0 0 34 30">
<defs>
<style>.a,.c{fill="current" stroke="current"}.a{stroke:#707070;}.b{clip-path:url(#a);}</style>
<clipPath id="a">
<rect class="a"
      width="34"
      height="30"
      transform="translate(54 375)" />
</clipPath>
</defs>
<g class="b"
   transform="translate(-54 -375)">
<path class="c"
      d="M26.218,28.208h7.74l-.045-.718c-.209-3.532-3.013-4.639-5.265-5.527-1.251-.5-2.435-.962-2.779-1.714-.053-.636-.048-1.131-.042-1.7v-.231a5.95,5.95,0,0,0,1.221-2.6,2.47,2.47,0,0,0,1.065-2.03,1.992,1.992,0,0,0-.35-1.452c.342-1.182,1-4.1-.18-5.991a3.314,3.314,0,0,0-2.244-1.521,3.806,3.806,0,0,0-3.023-1.062,6.368,6.368,0,0,0-3.842,1.153,4.176,4.176,0,0,0-1.468-.58,4.351,4.351,0,0,0-3.516-1.251c-2.5.048-4.324.811-5.432,2.268C6.746,6.974,6.5,9.594,7.332,13.036a2.223,2.223,0,0,0-.44,1.7c.18,1.5.76,2.106,1.251,2.35a6.843,6.843,0,0,0,1.5,3.119l0,.318a20.34,20.34,0,0,1-.056,2.056c-.413.954-1.8,1.5-3.389,2.125C3.545,25.749.246,27.045,0,31.162l-.042.718H27.175l-.042-.718A6.066,6.066,0,0,0,26.218,28.208ZM1.444,30.524c.511-2.692,2.917-3.635,5.249-4.555,1.86-.729,3.614-1.42,4.2-2.989l.04-.178A21.072,21.072,0,0,0,11,20.513l0-.628.013-.4-.363-.191A5.366,5.366,0,0,1,9.425,16.5l-.061-.559L8.8,15.9c-.087-.008-.437-.252-.564-1.317a.772.772,0,0,1,.2-.739l.432-.262-.127-.487c-.824-3.169-.686-5.6.395-7.022.843-1.113,2.316-1.7,4.361-1.733,1.274,0,2.215.318,2.52.851l.164.291.331.045A2.573,2.573,0,0,1,18.484,6.7c1.041,1.677.437,4.775-.082,6.341l-.143.509.435.286s.268.193.2.739c-.127,1.065-.477,1.309-.564,1.317l-.559.048-.061.556a5.552,5.552,0,0,1-1.171,2.787l-.363.191,0,1.039A21.025,21.025,0,0,0,16.24,22.8l.04.178c.583,1.569,2.332,2.257,4.184,2.989a13.006,13.006,0,0,1,3.686,1.921.677.677,0,0,0,.278.254,4.4,4.4,0,0,1,1.267,2.379Z"
      transform="translate(54.042 372.57)" />
</g>
</svg>