<svg xmlns="http://www.w3.org/2000/svg" width="18.069" height="19.001" viewBox="0 0 18.069 19.001"><defs><style>.a{fill:#00a816;}</style></defs><path class="a" d="M17.821,6.486l-1.4-1.469a.815.815,0,0,0-1.2,0L6.775,13.9,2.844,9.766a.815.815,0,0,0-1.2,0L.247,11.24a.924.924,0,0,0,0,1.262l5.929,6.238a.815.815,0,0,0,1.2,0L17.818,7.748A.928.928,0,0,0,17.821,6.486ZM6.377,10.42a.541.541,0,0,0,.8,0l7.34-7.726a.618.618,0,0,0,0-.839L12.919.174a.541.541,0,0,0-.8,0L6.775,5.8,4.82,3.737a.541.541,0,0,0-.8,0l-1.6,1.681a.618.618,0,0,0,0,.839Z" transform="translate(0.002 0.001)"/></svg>