<svg xmlns="http://www.w3.org/2000/svg" xmlns:xlink="http://www.w3.org/1999/xlink" width="25" height="25" viewBox="0 0 25 25"><defs><style>.a,.c{fill:#fff;}.a{stroke:#707070;}.b{clip-path:url(#a);}</style><clipPath id="a"><rect class="a" width="25" height="25" transform="translate(55.5 532.799)"/></clipPath></defs><g class="b" transform="translate(-55.5 -532.799)"><path class="c" d="M14.286,1.19A7.142,7.142,0,0,0,7.143,8.333c0,5.1,7.143,13.1,7.143,13.1s7.143-7.993,7.143-13.1A7.142,7.142,0,0,0,14.286,1.19Zm0,4.592a2.551,2.551,0,1,1-2.551,2.551A2.55,2.55,0,0,1,14.286,5.783ZM5.715,17.857,2.381,26.19H26.19l-3.334-8.333H20.015c-.577.87-1.157,1.676-1.69,2.381h2.923l1.428,3.571H5.9l1.428-3.571h2.923c-.533-.7-1.113-1.511-1.69-2.381Z" transform="translate(53.714 531.608)"/></g></svg>