<svg xmlns="http://www.w3.org/2000/svg" xmlns:xlink="http://www.w3.org/1999/xlink" width="28" height="24" viewBox="0 0 28 24"><defs><style>.a,.c{fill:#fff;}.a{stroke:#707070;}.b{clip-path:url(#a);}</style><clipPath id="a"><rect class="a" width="28" height="24" transform="translate(55.5 530.732)"/></clipPath></defs><g class="b" transform="translate(-55.5 -530.732)"><path class="c" d="M15,3a12,12,0,0,0,0,24h1a3,3,0,0,0,3-3V21a2,2,0,0,1,2-2h4a2,2,0,0,0,2-2V15A12,12,0,0,0,15,3Zm0,2a2,2,0,1,1-2,2A2,2,0,0,1,15,5ZM7,17a2,2,0,1,1,2-2A2,2,0,0,1,7,17Zm7.5,8A2.5,2.5,0,1,1,17,22.5,2.5,2.5,0,0,1,14.5,25ZM23,17a2,2,0,1,1,2-2A2,2,0,0,1,23,17Zm-.929-6.243a2,2,0,1,1,0-2.828A2,2,0,0,1,22.071,10.757Zm-14.142,0a2,2,0,1,1,2.828,0A2,2,0,0,1,7.929,10.757Z" transform="translate(54.5 527.732)"/></g></svg>