<svg xmlns="http://www.w3.org/2000/svg" xmlns:xlink="http://www.w3.org/1999/xlink" width="29" height="29" viewBox="0 0 29 29"><defs><style>.a,.c{fill:#fff;}.a{stroke:#707070;}.b{clip-path:url(#a);}</style><clipPath id="a"><rect class="a" width="29" height="29" transform="translate(54 530)"/></clipPath></defs><g class="b" transform="translate(-54 -530)"><path class="c" d="M3.261,4.435a1.8,1.8,0,0,0-1.783,1.8V27.467a.626.626,0,0,0,.627.622H29.69a.626.626,0,0,0,.627-.622V6.234a1.8,1.8,0,0,0-1.783-1.8Zm0,1.245H28.534a.533.533,0,0,1,.529.554V11.9H2.732V6.234A.533.533,0,0,1,3.261,5.68Zm8.875,1.245V10.66H27.182V6.925Zm-6.9.622A1.245,1.245,0,1,0,6.494,8.792,1.249,1.249,0,0,0,5.24,7.547ZM9,7.547a1.245,1.245,0,1,0,1.254,1.245A1.249,1.249,0,0,0,9,7.547Zm4.388.622H25.928V9.415H13.39ZM2.732,13.15H29.063V26.845H2.732Zm1.881,1.867v4.357H18.405V15.017Zm15.673,0v9.96h6.9v-9.96ZM5.867,16.262H17.151V18.13H5.867Zm15.673,0h4.388v7.47H21.54ZM4.613,20.62v4.357H18.405V20.62Zm1.254,1.245H17.151v1.867H5.867Z" transform="translate(52.522 528.055)"/></g></svg>