<svg xmlns="http://www.w3.org/2000/svg" xmlns:xlink="http://www.w3.org/1999/xlink" width="34" height="30" viewBox="0 0 34 30"><defs><style>.a,.c{fill:#fff;}.a{stroke:#707070;}.b{clip-path:url(#a);}</style><clipPath id="a"><rect class="a" width="34" height="30" transform="translate(54 449)"/></clipPath></defs><g class="b" transform="translate(-54 -449)"><path class="c" d="M6.207,3.1V30H21.724L20.69,31.034h2.069V33.1l3.31-3.31a1.978,1.978,0,0,0,1.657,0l3.31,3.31V31.034H33.1l-2.55-2.55a2,2,0,0,0,.564-1.1v0l.123-.76L31.691,26a2.015,2.015,0,0,0,0-2.346l-.451-.626-.125-.762v0a2.01,2.01,0,0,0-1.657-1.657l-.762-.123-.628-.453a2,2,0,0,0-1.172-.376V9.916L20.084,3.1ZM8.276,5.172H18.621v6.207h6.207V20.53l-.491.079h0a2.012,2.012,0,0,0-1.657,1.661l-.123.76-.453.626A2.011,2.011,0,0,0,22.1,26l.453.628.123.762a1.977,1.977,0,0,0,.18.541H8.276ZM20.69,6.635,23.365,9.31H20.69Zm-5.172,6.813v1.467a2.95,2.95,0,0,0-2.069,2.671,2.72,2.72,0,0,0,1.016,2.027,7.947,7.947,0,0,0,1.622.98,7.441,7.441,0,0,1,1.226.715c.251.208.273.258.273.416a1.056,1.056,0,0,1-1.034,1.034,1.018,1.018,0,0,1-1.034-1.034H13.448A2.948,2.948,0,0,0,15.517,24.4v1.465h2.069V24.4a2.952,2.952,0,0,0,2.069-2.671,2.685,2.685,0,0,0-1.02-2.01,8.156,8.156,0,0,0-1.618-.968,7.181,7.181,0,0,1-1.222-.717c-.25-.21-.277-.268-.277-.442a1.043,1.043,0,0,1,1.034-1.034,1.018,1.018,0,0,1,1.034,1.034h2.069a2.948,2.948,0,0,0-2.069-2.673V13.448ZM26.9,21.738l.986.711,1.2.194.192,1.2.711.984-.711.986-.192,1.2-1.2.192-.986.713-.984-.713-1.2-.192-.194-1.2-.711-.986.711-.984.194-1.2,1.2-.194Z" transform="translate(51.345 445.896)"/></g></svg>