<svg xmlns="http://www.w3.org/2000/svg" xmlns:xlink="http://www.w3.org/1999/xlink" width="34" height="30" viewBox="0 0 34 30"><defs><style>.a,.c{fill:#fff;}.a{stroke:#707070;}.b{clip-path:url(#a);}</style><clipPath id="a"><rect class="a" width="34" height="30" transform="translate(54 296)"/></clipPath></defs><g class="b" transform="translate(-54 -296)"><path class="c" d="M16.842,1.579a6.321,6.321,0,0,0-6.289,5.789H5.189A1.586,1.586,0,0,0,3.614,8.836L2.188,29.887a1.577,1.577,0,0,0,1.575,1.692h26.16a1.577,1.577,0,0,0,1.575-1.69L30.068,8.834A1.583,1.583,0,0,0,28.5,7.368H23.131A6.321,6.321,0,0,0,16.842,1.579Zm0,1.053a5.27,5.27,0,0,1,5.236,4.737H11.606A5.27,5.27,0,0,1,16.842,2.632ZM5.189,8.421h23.3a.53.53,0,0,1,.526.487l1.427,21.055a.525.525,0,0,1-.524.563H3.762a.527.527,0,0,1-.387-.167.533.533,0,0,1-.14-.4l1.32-19.435H22.632a.526.526,0,1,0,0-1.053h-18l.039-.563A.527.527,0,0,1,5.189,8.421ZM24.737,9.474a.526.526,0,0,0,0,1.053h2.105a.526.526,0,0,0,0-1.053Zm-5.748,3.684a.532.532,0,0,0-.508.282L13.744,23.966a.527.527,0,0,0,.933.489l4.737-10.526a.529.529,0,0,0-.222-.711A.564.564,0,0,0,18.988,13.158Zm-5.831.526a1.582,1.582,0,0,0-1.579,1.579v1.579a1.582,1.582,0,0,0,1.579,1.579h.526a1.582,1.582,0,0,0,1.579-1.579V15.263a1.582,1.582,0,0,0-1.579-1.579Zm0,1.053h.526a.527.527,0,0,1,.526.526v1.579a.527.527,0,0,1-.526.526h-.526a.527.527,0,0,1-.526-.526V15.263A.527.527,0,0,1,13.158,14.737Zm6.316,4.737a1.582,1.582,0,0,0-1.579,1.579v1.579a1.582,1.582,0,0,0,1.579,1.579H20a1.582,1.582,0,0,0,1.579-1.579V21.053A1.582,1.582,0,0,0,20,19.474Zm0,1.053H20a.527.527,0,0,1,.526.526v1.579a.527.527,0,0,1-.526.526h-.526a.527.527,0,0,1-.526-.526V21.053A.527.527,0,0,1,19.474,20.526ZM4.737,27.368a.525.525,0,0,0-.526.526v1.053a.526.526,0,1,0,1.053,0V27.895A.525.525,0,0,0,4.737,27.368Zm2.632,0a.525.525,0,0,0-.526.526v1.053a.526.526,0,1,0,1.053,0V27.895A.525.525,0,0,0,7.368,27.368Zm2.632,0a.525.525,0,0,0-.526.526v1.053a.526.526,0,1,0,1.053,0V27.895A.525.525,0,0,0,10,27.368Zm2.632,0a.525.525,0,0,0-.526.526v1.053a.526.526,0,1,0,1.053,0V27.895A.525.525,0,0,0,12.632,27.368Zm2.632,0a.525.525,0,0,0-.526.526v1.053a.526.526,0,1,0,1.053,0V27.895A.525.525,0,0,0,15.263,27.368Zm3.158,0a.525.525,0,0,0-.526.526v1.053a.526.526,0,1,0,1.053,0V27.895A.525.525,0,0,0,18.421,27.368Zm2.632,0a.525.525,0,0,0-.526.526v1.053a.526.526,0,1,0,1.053,0V27.895A.525.525,0,0,0,21.053,27.368Zm2.632,0a.525.525,0,0,0-.526.526v1.053a.526.526,0,1,0,1.053,0V27.895A.525.525,0,0,0,23.684,27.368Zm2.632,0a.525.525,0,0,0-.526.526v1.053a.526.526,0,1,0,1.053,0V27.895A.525.525,0,0,0,26.316,27.368Zm2.632,0a.525.525,0,0,0-.526.526v1.053a.526.526,0,1,0,1.053,0V27.895A.525.525,0,0,0,28.947,27.368Z" transform="translate(54.158 294.421)"/></g></svg>