<svg xmlns="http://www.w3.org/2000/svg" xmlns:xlink="http://www.w3.org/1999/xlink" width="34" height="28" viewBox="0 0 34 28"><defs><style>.a,.c{fill:#fff;}.a{stroke:#707070;}.b{clip-path:url(#a);}</style><clipPath id="a"><rect class="a" width="34" height="28" transform="translate(54 222)"/></clipPath></defs><g class="b" transform="translate(-54 -222)"><path class="c" d="M7.933,5.667a6.819,6.819,0,0,0-6.8,6.8,6.714,6.714,0,0,0,1.133,3.719V29.467H5.844a4.491,4.491,0,0,0,8.713,0h8.287a4.491,4.491,0,0,0,8.713,0h3.577V17.673l-.319-.354-6.8-6.8L27.66,10.2H21.533V6.8H11.652A6.714,6.714,0,0,0,7.933,5.667Zm0,2.267A4.533,4.533,0,1,1,3.4,12.467,4.514,4.514,0,0,1,7.933,7.933ZM6.8,9.067v3.86l.319.354,1.629,1.594,1.594-1.594-1.275-1.31v-2.9Zm7.012,0h5.454V27.2h-4.71a4.491,4.491,0,0,0-8.713,0H4.533V18.346a6.685,6.685,0,0,0,3.4.921,6.819,6.819,0,0,0,6.8-6.8A6.685,6.685,0,0,0,13.813,9.067Zm7.721,3.4H26.7l6.162,6.162V27.2h-1.31a4.491,4.491,0,0,0-8.713,0h-1.31ZM10.2,26.067a2.267,2.267,0,1,1-2.267,2.267A2.249,2.249,0,0,1,10.2,26.067Zm17,0a2.267,2.267,0,1,1-2.267,2.267A2.249,2.249,0,0,1,27.2,26.067Z" transform="translate(52.867 216.733)"/></g></svg>