<svg xmlns="http://www.w3.org/2000/svg" xmlns:xlink="http://www.w3.org/1999/xlink" width="41" height="36" viewBox="0 0 41 36"><defs><style>.a,.c{fill:#fff;}.a{stroke:#707070;}.b{clip-path:url(#a);}</style><clipPath id="a"><rect class="a" width="41" height="36" transform="translate(54.5 378.066)"/></clipPath></defs><g class="b" transform="translate(-54.5 -378.066)"><path class="c" d="M6.286,25.143A.842.842,0,0,0,5.429,26v9.429a.857.857,0,1,0,1.714,0V26A.842.842,0,0,0,6.286,25.143Zm0-22A3.714,3.714,0,1,0,10,6.857,3.707,3.707,0,0,0,6.286,3.143Zm0,5.714a2,2,0,1,1,2-2A1.988,1.988,0,0,1,6.286,8.857ZM3.714,35.429V28.857A.842.842,0,0,0,2.857,28,.842.842,0,0,0,2,28.857v6.571a.842.842,0,0,0,.857.857A.842.842,0,0,0,3.714,35.429ZM1.143,25.143A.842.842,0,0,0,2,24.286V15.714a1.988,1.988,0,0,1,2-2h.571a.857.857,0,1,0,0-1.714H4A3.707,3.707,0,0,0,.286,15.714v8.571A.842.842,0,0,0,1.143,25.143ZM32.571,12H32a.857.857,0,0,0,0,1.714h.571a1.988,1.988,0,0,1,2,2v7.714h-.857a.842.842,0,0,0-.857.857V35.429a.857.857,0,0,0,1.714,0V25.143h.857a.842.842,0,0,0,.857-.857V15.714A3.707,3.707,0,0,0,32.571,12ZM30.286,25.143a.842.842,0,0,0-.857.857v9.429a.857.857,0,1,0,1.714,0V26A.842.842,0,0,0,30.286,25.143ZM34,6.857a3.714,3.714,0,1,0-3.714,3.714A3.707,3.707,0,0,0,34,6.857Zm-3.714,2a2,2,0,1,1,2-2A1.988,1.988,0,0,1,30.286,8.857Zm-19.143.857a.842.842,0,0,0,.857.857H24.286a.857.857,0,1,0,0-1.714H12A.842.842,0,0,0,11.143,9.714ZM22,4a3.714,3.714,0,1,0-3.714,3.714A3.707,3.707,0,0,0,22,4ZM16.286,4a2,2,0,1,1,2,2A1.988,1.988,0,0,1,16.286,4Zm-8,8.857a.842.842,0,0,0,.857.857H14V34.571H9.714a.857.857,0,0,0,0,1.714H26.857a.857.857,0,0,0,0-1.714H22.571V13.714h4.857a.857.857,0,0,0,0-1.714H21.714a.842.842,0,0,0-.857.857V34.571H19.143V24.143a.857.857,0,0,0-1.714,0V34.571H15.714V12.857A.842.842,0,0,0,14.857,12H9.143A.842.842,0,0,0,8.286,12.857Z" transform="translate(56.714 377.781)"/></g></svg>