<svg xmlns="http://www.w3.org/2000/svg" width="182.931" height="173.12" viewBox="0 0 182.931 173.12"><defs><style>.a{fill:#e6e6e6;}.b{fill:#ff007c;}.c{fill:#fff;}.d{fill:#3f3d56;}</style></defs><g transform="translate(0.001 -0.001)"><circle class="a" cx="2.422" cy="2.422" r="2.422" transform="translate(-0.001 0.001)"/><circle class="a" cx="2.422" cy="2.422" r="2.422" transform="translate(12.259 0.001)"/><circle class="a" cx="2.422" cy="2.422" r="2.422" transform="translate(24.518 0.001)"/><circle class="a" cx="2.422" cy="2.422" r="2.422" transform="translate(36.777 0.001)"/><circle class="a" cx="2.422" cy="2.422" r="2.422" transform="translate(49.037 0.001)"/><circle class="a" cx="2.422" cy="2.422" r="2.422" transform="translate(61.296 0.001)"/><circle class="a" cx="2.422" cy="2.422" r="2.422" transform="translate(73.555 0.001)"/><circle class="a" cx="2.422" cy="2.422" r="2.422" transform="translate(85.814 0.001)"/><circle class="a" cx="2.422" cy="2.422" r="2.422" transform="translate(98.074 0.001)"/><circle class="a" cx="2.422" cy="2.422" r="2.422" transform="translate(110.333 0.001)"/><circle class="a" cx="2.422" cy="2.422" r="2.422" transform="translate(-0.001 12.414)"/><circle class="a" cx="2.422" cy="2.422" r="2.422" transform="translate(12.259 12.414)"/><circle class="a" cx="2.422" cy="2.422" r="2.422" transform="translate(24.518 12.414)"/><circle class="b" cx="2.422" cy="2.422" r="2.422" transform="translate(36.777 12.414)"/><circle class="a" cx="2.422" cy="2.422" r="2.422" transform="translate(49.037 12.414)"/><circle class="a" cx="2.422" cy="2.422" r="2.422" transform="translate(61.296 12.414)"/><circle class="a" cx="2.422" cy="2.422" r="2.422" transform="translate(73.555 12.414)"/><circle class="a" cx="2.422" cy="2.422" r="2.422" transform="translate(85.814 12.414)"/><circle class="a" cx="2.422" cy="2.422" r="2.422" transform="translate(98.074 12.414)"/><circle class="a" cx="2.422" cy="2.422" r="2.422" transform="translate(110.333 12.414)"/><circle class="a" cx="2.422" cy="2.422" r="2.422" transform="translate(-0.001 24.827)"/><circle class="a" cx="2.422" cy="2.422" r="2.422" transform="translate(12.259 24.827)"/><circle class="a" cx="2.422" cy="2.422" r="2.422" transform="translate(24.518 24.827)"/><circle class="a" cx="2.422" cy="2.422" r="2.422" transform="translate(36.777 24.827)"/><circle class="a" cx="2.422" cy="2.422" r="2.422" transform="translate(49.037 24.827)"/><circle class="a" cx="2.422" cy="2.422" r="2.422" transform="translate(61.296 24.827)"/><circle class="a" cx="2.422" cy="2.422" r="2.422" transform="translate(73.555 24.827)"/><circle class="a" cx="2.422" cy="2.422" r="2.422" transform="translate(85.814 24.827)"/><circle class="a" cx="2.422" cy="2.422" r="2.422" transform="translate(98.074 24.827)"/><circle class="a" cx="2.422" cy="2.422" r="2.422" transform="translate(110.333 24.827)"/><circle class="a" cx="2.422" cy="2.422" r="2.422" transform="translate(-0.001 37.24)"/><circle class="a" cx="2.422" cy="2.422" r="2.422" transform="translate(12.259 37.24)"/><circle class="a" cx="2.422" cy="2.422" r="2.422" transform="translate(24.518 37.24)"/><circle class="a" cx="2.422" cy="2.422" r="2.422" transform="translate(36.777 37.24)"/><circle class="a" cx="2.422" cy="2.422" r="2.422" transform="translate(49.037 37.24)"/><circle class="a" cx="2.422" cy="2.422" r="2.422" transform="translate(61.296 37.24)"/><circle class="a" cx="2.422" cy="2.422" r="2.422" transform="translate(73.555 37.24)"/><circle class="a" cx="2.422" cy="2.422" r="2.422" transform="translate(85.814 37.24)"/><circle class="a" cx="2.422" cy="2.422" r="2.422" transform="translate(98.074 37.24)"/><circle class="a" cx="2.422" cy="2.422" r="2.422" transform="translate(110.333 37.24)"/><circle class="a" cx="2.422" cy="2.422" r="2.422" transform="translate(-0.001 49.653)"/><circle class="b" cx="2.422" cy="2.422" r="2.422" transform="translate(12.259 49.653)"/><circle class="a" cx="2.422" cy="2.422" r="2.422" transform="translate(24.518 49.653)"/><circle class="a" cx="2.422" cy="2.422" r="2.422" transform="translate(36.777 49.653)"/><circle class="a" cx="2.422" cy="2.422" r="2.422" transform="translate(49.037 49.653)"/><circle class="a" cx="2.422" cy="2.422" r="2.422" transform="translate(61.296 49.653)"/><circle class="a" cx="2.422" cy="2.422" r="2.422" transform="translate(73.555 49.653)"/><circle class="a" cx="2.422" cy="2.422" r="2.422" transform="translate(85.814 49.653)"/><circle class="a" cx="2.422" cy="2.422" r="2.422" transform="translate(98.074 49.653)"/><circle class="a" cx="2.422" cy="2.422" r="2.422" transform="translate(110.333 49.653)"/><circle class="a" cx="2.422" cy="2.422" r="2.422" transform="translate(-0.001 62.067)"/><circle class="a" cx="2.422" cy="2.422" r="2.422" transform="translate(12.259 62.067)"/><circle class="a" cx="2.422" cy="2.422" r="2.422" transform="translate(24.518 62.067)"/><circle class="a" cx="2.422" cy="2.422" r="2.422" transform="translate(36.777 62.067)"/><circle class="a" cx="2.422" cy="2.422" r="2.422" transform="translate(49.037 62.067)"/><circle class="a" cx="2.422" cy="2.422" r="2.422" transform="translate(61.296 62.067)"/><circle class="a" cx="2.422" cy="2.422" r="2.422" transform="translate(73.555 62.067)"/><circle class="a" cx="2.422" cy="2.422" r="2.422" transform="translate(85.814 62.067)"/><circle class="a" cx="2.422" cy="2.422" r="2.422" transform="translate(98.074 62.067)"/><circle class="a" cx="2.422" cy="2.422" r="2.422" transform="translate(110.333 62.067)"/><circle class="a" cx="2.422" cy="2.422" r="2.422" transform="translate(-0.001 74.48)"/><circle class="a" cx="2.422" cy="2.422" r="2.422" transform="translate(12.259 74.48)"/><circle class="b" cx="2.422" cy="2.422" r="2.422" transform="translate(24.518 74.48)"/><circle class="a" cx="2.422" cy="2.422" r="2.422" transform="translate(36.777 74.48)"/><circle class="a" cx="2.422" cy="2.422" r="2.422" transform="translate(49.037 74.48)"/><circle class="a" cx="2.422" cy="2.422" r="2.422" transform="translate(61.296 74.48)"/><circle class="a" cx="2.422" cy="2.422" r="2.422" transform="translate(73.555 74.48)"/><circle class="a" cx="2.422" cy="2.422" r="2.422" transform="translate(85.814 74.48)"/><circle class="a" cx="2.422" cy="2.422" r="2.422" transform="translate(98.074 74.48)"/><circle class="a" cx="2.422" cy="2.422" r="2.422" transform="translate(110.333 74.48)"/><circle class="a" cx="2.422" cy="2.422" r="2.422" transform="translate(-0.001 86.893)"/><circle class="a" cx="2.422" cy="2.422" r="2.422" transform="translate(12.259 86.893)"/><circle class="a" cx="2.422" cy="2.422" r="2.422" transform="translate(24.518 86.893)"/><circle class="a" cx="2.422" cy="2.422" r="2.422" transform="translate(36.777 86.893)"/><circle class="a" cx="2.422" cy="2.422" r="2.422" transform="translate(49.037 86.893)"/><circle class="a" cx="2.422" cy="2.422" r="2.422" transform="translate(61.296 86.893)"/><circle class="a" cx="2.422" cy="2.422" r="2.422" transform="translate(73.555 86.893)"/><circle class="a" cx="2.422" cy="2.422" r="2.422" transform="translate(85.814 86.893)"/><circle class="a" cx="2.422" cy="2.422" r="2.422" transform="translate(98.074 86.893)"/><circle class="a" cx="2.422" cy="2.422" r="2.422" transform="translate(110.333 86.893)"/><circle class="a" cx="2.422" cy="2.422" r="2.422" transform="translate(-0.001 99.306)"/><circle class="a" cx="2.422" cy="2.422" r="2.422" transform="translate(12.259 99.306)"/><circle class="a" cx="2.422" cy="2.422" r="2.422" transform="translate(24.518 99.306)"/><circle class="a" cx="2.422" cy="2.422" r="2.422" transform="translate(36.777 99.306)"/><circle class="a" cx="2.422" cy="2.422" r="2.422" transform="translate(49.037 99.306)"/><circle class="a" cx="2.422" cy="2.422" r="2.422" transform="translate(61.296 99.306)"/><circle class="a" cx="2.422" cy="2.422" r="2.422" transform="translate(73.555 99.306)"/><circle class="a" cx="2.422" cy="2.422" r="2.422" transform="translate(85.814 99.306)"/><circle class="a" cx="2.422" cy="2.422" r="2.422" transform="translate(98.074 99.306)"/><circle class="a" cx="2.422" cy="2.422" r="2.422" transform="translate(110.333 99.306)"/><circle class="a" cx="2.422" cy="2.422" r="2.422" transform="translate(-0.001 111.719)"/><circle class="a" cx="2.422" cy="2.422" r="2.422" transform="translate(12.259 111.719)"/><circle class="a" cx="2.422" cy="2.422" r="2.422" transform="translate(24.518 111.719)"/><circle class="a" cx="2.422" cy="2.422" r="2.422" transform="translate(36.777 111.719)"/><circle class="a" cx="2.422" cy="2.422" r="2.422" transform="translate(49.037 111.719)"/><circle class="a" cx="2.422" cy="2.422" r="2.422" transform="translate(61.296 111.719)"/><circle class="a" cx="2.422" cy="2.422" r="2.422" transform="translate(73.555 111.719)"/><circle class="a" cx="2.422" cy="2.422" r="2.422" transform="translate(85.814 111.719)"/><circle class="a" cx="2.422" cy="2.422" r="2.422" transform="translate(98.074 111.719)"/><circle class="a" cx="2.422" cy="2.422" r="2.422" transform="translate(110.333 111.719)"/><path class="a" d="M444.312,193.83a3.062,3.062,0,0,1,3.062,3.062V319.367a3.062,3.062,0,0,1-3.062,3.062H356.436a3.062,3.062,0,0,1-3.062-3.062V196.892a3.062,3.062,0,0,1,3.062-3.062h87.876" transform="translate(-301.987 -172.185)"/><path class="c" d="M362.991,325.209h87.163V203.447H362.991Z" transform="translate(-308.185 -178.384)"/><path class="a" d="M464.815,257.643a.612.612,0,0,1,.612.612v1.225a.612.612,0,0,1-.612.612H416.438a.612.612,0,0,1-.612-.612v-1.225a.612.612,0,0,1,.612-.612h48.378" transform="translate(-342.239 -213.316)"/><path class="a" d="M464.815,274.009a.612.612,0,0,1,.612.612v1.225a.612.612,0,0,1-.612.612H416.438a.612.612,0,0,1-.612-.612v-1.225a.612.612,0,0,1,.612-.612h48.378" transform="translate(-342.239 -223.864)"/><path class="b" d="M464.815,290.376a.612.612,0,0,1,.612.612v1.225a.612.612,0,0,1-.612.612H416.438a.612.612,0,0,1-.612-.612v-1.225a.612.612,0,0,1,.612-.612h48.378" transform="translate(-342.239 -234.414)"/><path class="a" d="M464.815,307.1a.612.612,0,0,1,.612.612v1.225a.612.612,0,0,1-.612.612H416.438a.612.612,0,0,1-.612-.612v-1.225a.612.612,0,0,1,.612-.612h48.378" transform="translate(-342.239 -245.194)"/><path class="a" d="M464.815,323.467a.612.612,0,0,1,.612.612V325.3a.612.612,0,0,1-.612.612H416.438a.612.612,0,0,1-.612-.612v-1.225a.612.612,0,0,1,.612-.612h48.378" transform="translate(-342.239 -255.742)"/><path class="a" d="M464.815,339.834a.612.612,0,0,1,.612.612v1.225a.612.612,0,0,1-.612.612H416.438a.612.612,0,0,1-.612-.612v-1.225a.612.612,0,0,1,.612-.612h48.378" transform="translate(-342.239 -266.292)"/><path class="b" d="M417.128,394.89a.712.712,0,0,0-.711.711v33.027a.712.712,0,0,0,.711.711h47.677a.712.712,0,0,0,.711-.711V395.6a.712.712,0,0,0-.711-.711Z" transform="translate(-342.621 -301.778)"/><path class="d" d="M276.333,86.44l-.5-.133,10.922-41.086h63.351v.518H287.153Z" transform="translate(-177.787 -29.147)"/><path class="d" d="M698.3,174.468a5.435,5.435,0,1,1,5.435-5.435A5.435,5.435,0,0,1,698.3,174.468Zm0-10.353a4.918,4.918,0,1,0,4.918,4.918,4.918,4.918,0,0,0-4.918-4.918Z" transform="translate(-520.802 -152.699)"/><circle class="b" cx="2.071" cy="2.071" r="2.071" transform="translate(175.425 14.263)"/><path class="d" d="M138.563,356.941l.5.134-11,41.065-63.351-.121V397.5l62.953.121Z" transform="translate(-41.71 -230.064)"/><path class="d" d="M249.11,589.4a5.435,5.435,0,1,1-5.446,5.425A5.435,5.435,0,0,1,249.11,589.4Zm-.02,10.353a4.918,4.918,0,1,0-4.908-4.927,4.918,4.918,0,0,0,4.908,4.927Z" transform="translate(-231.274 -427.145)"/><circle class="b" cx="2.071" cy="2.071" r="2.071" transform="translate(15.755 165.615)"/></g></svg>